<svg xmlns="http://www.w3.org/2000/svg" width="245.928" height="116.1" viewBox="0 0 245.928 116.1">
  <g id="Group_7" data-name="Group 7" transform="translate(-65 -107.9)">
    <g id="Group_4" data-name="Group 4" transform="translate(65 107.9)">
      <g id="Group_3" data-name="Group 3">
        <g id="Group_1" data-name="Group 1" transform="translate(0 46.21)">
          <path id="Path_1" data-name="Path 1" d="M141.343,159.627H125.816v12.782h18.46v6.883H117.421V134.554h26.8v6.914h-18.4v11.246h15.527Z" transform="translate(-117.421 -133.908)" fill="#31474f"/>
          <path id="Path_2" data-name="Path 2" d="M143.881,179.292V134.554h14.607a16.691,16.691,0,0,1,12.652,5.239q4.974,5.239,4.974,13.443v7.405q0,8.236-4.974,13.443a16.737,16.737,0,0,1-12.652,5.208Zm8.4-37.824v30.941h6.211a8,8,0,0,0,6.671-3.3,13.533,13.533,0,0,0,2.53-8.466v-7.467a13.414,13.414,0,0,0-2.53-8.419,8.012,8.012,0,0,0-6.671-3.287Z" transform="translate(-111.131 -133.908)" fill="#31474f"/>
          <path id="Path_3" data-name="Path 3" d="M208.619,134.554v29.283q0,7.558-4.687,11.83t-12.163,4.271q-7.447,0-12.091-4.271t-4.643-11.83V134.554h8.424v29.283q0,4.487,2.243,6.852a7.96,7.96,0,0,0,6.067,2.366,8.129,8.129,0,0,0,6.154-2.366q2.271-2.365,2.271-6.852V134.554Z" transform="translate(-103.726 -133.908)" fill="#31474f"/>
          <path id="Path_4" data-name="Path 4" d="M211.132,160.088v19.2H209.58V134.554h13.083q6.5,0,10.006,3.488a14.067,14.067,0,0,1,.015,18.574q-3.494,3.472-10.02,3.472Zm0-1.659h11.53q5.952,0,8.957-3.166a11.02,11.02,0,0,0,3-7.9,11.157,11.157,0,0,0-2.99-8q-2.991-3.149-8.971-3.15h-11.53Z" transform="translate(-95.514 -133.908)" fill="#31474f"/>
          <path id="Path_5" data-name="Path 5" d="M239.736,177.634h22.629v1.659H238.154V134.554h1.582Z" transform="translate(-88.722 -133.908)" fill="#31474f"/>
          <path id="Path_6" data-name="Path 6" d="M291.413,134.554v29.714q0,7.374-4,11.522a14.861,14.861,0,0,1-20.616-.015q-4-4.164-4-11.507V134.554h1.552v29.714q0,6.359,3.609,10.185a12.839,12.839,0,0,0,18.287,0q3.607-3.824,3.608-10.185V134.554Z" transform="translate(-82.863 -133.908)" fill="#31474f"/>
          <path id="Path_7" data-name="Path 7" d="M320.2,168.877a7.531,7.531,0,0,0-2.948-6.191q-2.946-2.35-10.049-4.839-7.074-2.306-10.423-4.886t-3.35-7.65a9.926,9.926,0,0,1,3.925-8.159,15.528,15.528,0,0,1,9.964-3.119q6.268,0,10.079,3.442t3.695,9.617l-.058.184h-1.322a10.974,10.974,0,0,0-3.451-8.3,12.434,12.434,0,0,0-8.942-3.287q-5.664,0-9,2.842a8.582,8.582,0,0,0-3.334,6.715,8.047,8.047,0,0,0,2.688,6.284q2.688,2.412,10.02,4.717a39.451,39.451,0,0,1,10.61,4.977,8.859,8.859,0,0,1,3.479,7.59,9.7,9.7,0,0,1-4.112,8.174,16.477,16.477,0,0,1-10.149,3.073,18.547,18.547,0,0,1-10.841-3.15q-4.543-3.149-4.4-9.909l.057-.184h1.295q0,6.084,4.2,8.834a17.271,17.271,0,0,0,9.69,2.75,14.633,14.633,0,0,0,9.086-2.719A8.231,8.231,0,0,0,320.2,168.877Z" transform="translate(-75.856 -134.032)" fill="#31474f"/>
        </g>
        <g id="Group_2" data-name="Group 2" transform="translate(202.82)">
          <path id="Path_8" data-name="Path 8" d="M302.457,137.87l-21.168-8.961V103.772l21.168,7.951ZM281.74,128.61l20.267,8.58V112.034l-20.267-7.612Z" transform="translate(-281.289 -95.015)" fill="#12a2db"/>
          <path id="Path_9" data-name="Path 9" d="M298.392,137.87V111.723l21.167-7.951v25.137Zm.451-25.836V137.19l20.266-8.58V104.422Z" transform="translate(-277.224 -95.015)" fill="#12a2db"/>
          <path id="Path_10" data-name="Path 10" d="M298.028,113.759V97.154l21.618,8.2Z" transform="translate(-277.31 -96.588)" fill="#12a2db"/>
          <path id="Path_11" data-name="Path 11" d="M298.98,96.7" transform="translate(-277.084 -96.697)" fill="none" stroke="red" stroke-miterlimit="10" stroke-width="2"/>
          <path id="Path_12" data-name="Path 12" d="M314.766,103.918l.676.086v24.785l-.676-.016Z" transform="translate(-273.331 -94.98)" fill="#12a2db"/>
          <path id="Path_13" data-name="Path 13" d="M281.471,104.014l.676.324v24.428l-.676-.016Z" transform="translate(-281.246 -94.958)" fill="#12a2db"/>
        </g>
      </g>
    </g>
    <text id="EMPOWERED_YOUR_EDUCATION" data-name="EMPOWERED YOUR EDUCATION" transform="translate(88 222)" fill="#31474f" font-size="9" font-family="Roboto-Light, Roboto" font-weight="300" letter-spacing="0.336em"><tspan x="0" y="0">EMPOWERED YOUR EDUCATION</tspan></text>
  </g>
</svg>
